<svg width="179" height="40" viewBox="0 0 179 40" fill="none" xmlns="http://www.w3.org/2000/svg">
<path d="M131.046 34.2851C128.744 33.9987 126.423 33.7123 124.121 33.4069C123.541 33.3305 122.96 33.2733 122.38 33.216C121.219 33.1015 120.078 32.8533 118.956 32.5478C118.395 32.3951 117.834 32.2233 117.273 32.0133C117.273 31.9751 117.273 31.956 117.293 31.9179C118.473 31.8033 119.633 31.8797 120.813 31.9751C121.974 32.0897 123.096 32.3951 124.237 32.6242C125.088 32.796 126.81 33.1587 127.661 33.3496C128.783 33.6169 129.924 33.8842 131.065 34.1705C131.065 34.2278 131.065 34.2469 131.046 34.2851Z" fill="white"/>
<path d="M49.3203 33.9982C51.5835 33.4446 53.8466 32.9101 56.1291 32.4519C56.6901 32.3374 57.2704 32.2037 57.8313 32.0892C58.9726 31.841 60.1331 31.7265 61.2937 31.7074C61.874 31.6883 62.4737 31.6883 63.054 31.7647C63.054 31.8028 63.054 31.8219 63.0733 31.8601C61.9707 32.2801 60.8295 32.5664 59.6882 32.7955C58.547 33.0437 57.3864 33.101 56.2452 33.2346C55.3941 33.3492 53.6532 33.5782 52.7827 33.6737C51.6221 33.8073 50.4809 33.96 49.3203 34.1128C49.3203 34.0555 49.3203 34.0364 49.3203 33.9982Z" fill="white"/>
<path d="M17.7333 16.2823C17.9267 17.485 17.6753 18.5349 17.0176 19.4513C17.9461 20.1194 18.4877 21.0549 18.6811 22.2576C18.7778 22.8493 18.8165 23.1548 18.9132 23.7466C19.0486 24.5675 18.9713 25.312 18.6811 26.0183C18.4103 26.7247 17.9654 27.3165 17.3464 27.7746C16.7468 28.2328 16.0118 28.5383 15.18 28.6719C11.4855 29.2828 7.79091 29.9319 4.09637 30.6191L2.04599 19.9667C5.29564 19.3558 8.52595 18.7831 11.7756 18.2295C12.1818 18.1531 12.5106 17.9813 12.7428 17.6759C12.9749 17.3704 13.0523 17.0268 12.9749 16.6259C12.9169 16.225 12.7234 15.9196 12.4139 15.7096C12.1044 15.4996 11.7369 15.4232 11.3114 15.4996C8.04238 16.0532 4.77338 16.6259 1.52373 17.2368C1.21424 15.6523 1.05949 14.8505 0.75 13.266C4.57995 12.5597 8.40989 11.8724 12.2592 11.2424C13.1296 11.0897 13.9614 11.147 14.6964 11.3952C15.4315 11.6433 16.0698 12.0633 16.5534 12.6551C17.0563 13.2469 17.3658 13.9342 17.4818 14.7551C17.5979 15.385 17.6559 15.6714 17.7333 16.2823ZM12.9362 24.9684C13.3424 24.892 13.6519 24.7202 13.884 24.4148C14.0968 24.1093 14.1742 23.7657 14.1161 23.3648C14.0581 22.9639 13.8647 22.6584 13.5552 22.4485C13.2457 22.2385 12.8782 22.1621 12.472 22.2385C10.4603 22.5821 9.45443 22.7539 7.44274 23.0975C7.63617 24.1857 7.73289 24.7393 7.94566 25.8274C9.93801 25.4647 10.9438 25.2929 12.9362 24.9684Z" fill="white"/>
<path d="M24.7748 9.39062C25.4132 13.8768 26.0321 18.3822 26.6705 22.8684C29.3205 22.5057 31.9898 22.162 34.6399 21.8566C34.8333 23.4602 34.93 24.262 35.1234 25.8656C30.9453 26.381 26.7865 26.9155 22.6277 27.5264C21.7573 21.7039 20.8675 15.8813 19.9971 10.0779C21.912 9.79152 22.8599 9.65789 24.7748 9.39062Z" fill="white"/>
<path d="M53.0545 19.7185C53.1125 20.5394 52.9965 21.303 52.6483 21.9902C52.3195 22.6775 51.8359 23.2502 51.1782 23.6702C50.5399 24.1093 49.8049 24.3574 48.9538 24.4338C46.71 24.6247 44.4468 24.8538 42.203 25.0829C41.3712 25.1783 40.5975 25.0638 39.8818 24.7583C39.1661 24.4529 38.5858 23.9947 38.1216 23.3838C37.6574 22.7729 37.3865 22.0475 37.2898 21.2266C36.7869 16.8168 36.2646 12.426 35.7617 8.01613C37.6767 7.80614 38.6245 7.6916 40.5395 7.5007C40.9457 11.4142 41.3712 15.3468 41.7774 19.2603C41.8355 19.7758 42.0482 20.1957 42.4351 20.4821C42.822 20.7875 43.2669 20.9021 43.8085 20.8448C44.9304 20.7303 45.472 20.673 46.5939 20.5776C47.1355 20.5203 47.5417 20.3294 47.8705 19.9476C48.18 19.5849 48.3154 19.1458 48.2768 18.6113L47.1935 6.83254C49.1085 6.66072 50.0563 6.58436 51.9713 6.43164C52.3388 10.8797 52.687 15.3086 53.0545 19.7185Z" fill="white"/>
<path d="M70.0962 5.38184C70.1736 6.98542 70.1929 7.8063 70.2703 9.40989C66.9239 9.56261 63.5776 9.73443 60.2312 9.92533C60.3086 11.0326 60.3279 11.5862 60.4053 12.6934C63.4615 12.5025 66.5371 12.3307 69.5933 12.2162C69.6706 13.8197 69.69 14.6406 69.7674 16.2442C66.7305 16.3778 63.6936 16.5306 60.6567 16.7215C60.7341 17.8287 60.7535 18.3823 60.8308 19.4896C64.0998 19.2796 67.3882 19.1078 70.6572 18.9741C70.7345 20.5777 70.7539 21.3986 70.8312 23.0022C66.0341 23.2122 61.2564 23.4794 56.4786 23.8231C56.0531 17.9623 55.6082 12.0825 55.1826 6.22181C60.1345 5.87818 65.1057 5.61092 70.0962 5.38184Z" fill="white"/>
<path d="M89.3047 18.2678C89.3047 19.0886 89.1112 19.8332 88.7244 20.5013C88.3375 21.1695 87.8152 21.6849 87.1382 22.0667C86.4612 22.4485 85.7068 22.6394 84.8751 22.6585C82.6119 22.6776 80.3681 22.7158 78.105 22.7731C77.2732 22.7922 76.4995 22.6203 75.8225 22.2767C75.1261 21.914 74.5845 21.4177 74.1783 20.7686C73.7721 20.1195 73.54 19.375 73.5206 18.5541C73.4046 15.576 73.3079 12.617 73.1918 9.63894C73.1531 8.81806 73.3272 8.07354 73.7141 7.38629C74.0816 6.71813 74.6232 6.16451 75.3195 5.76361C76.0159 5.36272 76.7896 5.15272 77.6601 5.13363C80.0006 5.07636 82.3605 5.03818 84.701 5C85.5714 5 86.3645 5.17181 87.0609 5.55362C87.7572 5.93542 88.3182 6.45086 88.7244 7.11902C89.1306 7.78718 89.324 8.53171 89.324 9.35259C89.324 10.3262 89.324 10.8225 89.324 11.7961C87.4284 11.7961 86.4806 11.7961 84.5849 11.8343C84.5849 11.4334 84.5849 11.2425 84.5656 10.8607C84.5656 10.3453 84.3722 9.90621 84.024 9.58167C83.6758 9.25714 83.2116 9.08532 82.67 9.10441C81.5287 9.1235 80.9484 9.12351 79.8072 9.16169C79.2656 9.18078 78.8207 9.35259 78.4725 9.69621C78.1243 10.0398 77.9696 10.4789 77.9696 10.9944C78.0276 12.9988 78.0663 14.9842 78.1243 16.9887C78.1437 17.5041 78.3177 17.9432 78.6659 18.2678C79.0141 18.5923 79.459 18.745 80.0006 18.745C81.1225 18.7259 81.6834 18.7068 82.8054 18.6877C83.347 18.6877 83.7725 18.4968 84.1207 18.1723C84.4689 17.8287 84.6236 17.4087 84.6236 16.8742C84.6236 16.4733 84.6236 16.2824 84.6043 15.8815C86.4806 15.8624 87.409 15.8624 89.2853 15.8433C89.3047 16.7978 89.3047 17.2942 89.3047 18.2678Z" fill="white"/>
<path d="M96.8276 22.6784C95.9958 22.6593 95.2414 22.4684 94.5644 22.0866C93.8874 21.7048 93.3652 21.1703 92.9783 20.5021C92.5914 19.8339 92.398 19.0894 92.4173 18.2685C92.4367 15.2904 92.456 12.3124 92.4754 9.33427C92.4754 8.51339 92.6881 7.76886 93.0943 7.1007C93.5006 6.43254 94.0422 5.9171 94.7579 5.55439C95.4542 5.19167 96.2473 5.00077 97.1177 5.01986C99.4582 5.05804 101.818 5.11531 104.159 5.17258C105.029 5.19167 105.803 5.42076 106.499 5.82165C107.196 6.22255 107.718 6.75708 108.085 7.44433C108.453 8.13158 108.627 8.8761 108.588 9.69698C108.472 12.6751 108.356 15.6341 108.221 18.6122C108.182 19.433 107.969 20.1776 107.544 20.8266C107.137 21.4757 106.577 21.972 105.9 22.3348C105.203 22.6975 104.449 22.8502 103.617 22.8311C101.335 22.7738 99.0714 22.7166 96.8276 22.6784ZM97.0984 16.8558C97.0984 17.3713 97.2531 17.8104 97.6013 18.154C97.9495 18.4976 98.375 18.6694 98.9166 18.6885C100.039 18.7076 100.6 18.7267 101.721 18.7458C102.263 18.7649 102.708 18.6122 103.056 18.2685C103.404 17.944 103.598 17.524 103.617 16.9895C103.675 14.985 103.733 12.9996 103.791 10.9951C103.81 10.4797 103.636 10.0406 103.308 9.69698C102.959 9.35336 102.514 9.16246 101.973 9.16246C100.832 9.12428 100.251 9.12428 99.1101 9.10519C98.5685 9.08609 98.1042 9.25791 97.7561 9.58244C97.3885 9.90698 97.2144 10.3461 97.2144 10.8615C97.1564 12.866 97.1177 14.8705 97.0984 16.8558Z" fill="white"/>
<path d="M116.732 5.72571C116.481 10.2501 116.21 14.7936 115.959 19.318C118.628 19.4707 121.297 19.6425 123.967 19.8334C123.851 21.437 123.793 22.2388 123.657 23.8615C119.479 23.5751 115.282 23.327 111.104 23.117C111.374 17.2372 111.664 11.3574 111.935 5.47754C113.85 5.57299 114.817 5.63026 116.732 5.72571Z" fill="white"/>
<path d="M132.574 6.87116C132.168 11.3956 131.742 15.92 131.336 20.4253C134.006 20.6544 136.675 20.9216 139.325 21.208C139.151 22.8116 139.054 23.6134 138.88 25.2169C134.702 24.7779 130.524 24.3961 126.346 24.0524C126.829 18.1917 127.294 12.331 127.777 6.45117C129.692 6.62298 130.659 6.69935 132.574 6.87116Z" fill="white"/>
<path d="M155.167 9.42879C156.038 9.54333 156.792 9.84877 157.431 10.3069C158.069 10.7842 158.533 11.376 158.843 12.0823C159.133 12.7887 159.229 13.5523 159.094 14.3732C158.436 18.7449 157.779 23.1356 157.121 27.5073C155.283 27.24 154.374 27.1064 152.537 26.8582C152.808 24.9683 152.943 24.0138 153.194 22.1047C151.047 21.8184 148.9 21.532 146.753 21.2648C146.521 23.1738 146.386 24.1092 146.153 26.0183C144.316 25.7892 143.407 25.6937 141.55 25.4837C142.053 21.0739 142.556 16.6831 143.078 12.2732C143.175 11.4524 143.445 10.746 143.929 10.116C144.393 9.50515 145.012 9.04698 145.747 8.76063C146.482 8.47427 147.295 8.37882 148.165 8.47427C150.506 8.79881 152.846 9.10425 155.167 9.42879ZM147.256 17.294C149.422 17.5613 151.589 17.8476 153.755 18.134C153.929 16.9504 154.007 16.3586 154.181 15.1559C154.258 14.6404 154.142 14.1823 153.833 13.8196C153.523 13.4377 153.098 13.2087 152.556 13.1323C151.415 12.9796 150.854 12.9032 149.713 12.7696C149.171 12.6932 148.707 12.8078 148.301 13.0941C147.914 13.3805 147.682 13.7814 147.624 14.2968C147.488 15.5186 147.411 16.1104 147.256 17.294Z" fill="white"/>
<path d="M177.894 18.9931C177.739 19.7949 177.41 20.5013 176.907 21.074C176.405 21.6467 175.786 22.0667 175.05 22.3148C175.65 22.7921 176.076 23.403 176.327 24.1284C176.579 24.8539 176.617 25.6175 176.463 26.4193C176.134 28.0992 175.979 28.9392 175.65 30.6382C173.832 30.2946 172.923 30.1228 171.085 29.7982C171.395 28.1183 171.549 27.2783 171.859 25.5984C171.956 25.0829 171.859 24.6248 171.569 24.243C171.279 23.8612 170.872 23.613 170.35 23.5175C168.513 23.193 167.584 23.0403 165.746 22.7348C165.418 24.7202 165.069 26.7056 164.741 28.7101C162.903 28.4047 161.994 28.271 160.156 27.9847C161.065 22.1621 161.994 16.3587 162.903 10.5361C166.752 11.1279 170.602 11.7579 174.432 12.4452C175.283 12.5979 176.037 12.9224 176.656 13.4188C177.275 13.9151 177.72 14.526 177.991 15.2514C178.261 15.9769 178.319 16.7405 178.165 17.5614C178.068 18.1532 178.01 18.4204 177.894 18.9931ZM167.004 15.2896C166.772 16.6832 166.656 17.3705 166.423 18.7641C168.28 19.0695 169.209 19.2222 171.066 19.5468C171.607 19.6422 172.072 19.5468 172.478 19.2795C172.884 19.0122 173.136 18.6304 173.232 18.1341C173.329 17.6377 173.232 17.1986 172.942 16.7978C172.652 16.3969 172.246 16.1678 171.704 16.0723C169.808 15.7478 168.88 15.5951 167.004 15.2896Z" fill="white"/>
<path d="M73.2876 32.7766L73.6358 33.0248C73.1329 33.7693 72.3979 34.1702 71.4694 34.2275C70.5409 34.2848 69.7672 34.0366 69.1289 33.4639C68.4905 32.8912 68.1424 32.1467 68.0843 31.2303C68.0263 30.314 68.2778 29.5122 68.8387 28.8822C69.3997 28.2522 70.1347 27.8895 71.0632 27.8322C71.5081 27.8132 71.9336 27.8513 72.3205 27.985C72.7073 28.1186 73.0168 28.3095 73.249 28.5768L72.9201 28.9204C72.7267 28.7104 72.4559 28.5386 72.1464 28.405C71.8369 28.2904 71.4887 28.2331 71.1212 28.2522C70.3281 28.3095 69.6898 28.6149 69.2449 29.1686C68.7807 29.7413 68.5873 30.4094 68.6259 31.173C68.6646 31.9367 68.9548 32.5857 69.477 33.0821C69.9993 33.5784 70.657 33.8075 71.4694 33.7693C72.2238 33.7311 72.8427 33.3875 73.2876 32.7766Z" fill="white"/>
<path d="M78.6074 27.6406L78.7815 33.2723L81.7023 33.1768L81.7217 33.6159L78.2979 33.7304L78.1045 27.6597L78.6074 27.6406Z" fill="white"/>
<path d="M91.0452 28.1951C91.6449 28.806 91.9544 29.5696 91.9544 30.4859C91.9544 31.4214 91.6449 32.185 91.0452 32.7768C90.4456 33.3877 89.6719 33.6931 88.7434 33.6931C87.8343 33.6931 87.0605 33.3877 86.4609 32.7959C85.8613 32.185 85.5518 31.4214 85.5518 30.505C85.5518 29.5696 85.8613 28.806 86.4609 28.2142C87.0605 27.6033 87.8343 27.2979 88.7434 27.2979C89.6719 27.2979 90.4456 27.6033 91.0452 28.1951ZM90.697 32.4713C91.1806 31.9368 91.4321 31.2877 91.4321 30.505C91.4321 29.7223 91.1806 29.0732 90.6777 28.5387C90.1748 28.0042 89.5364 27.7369 88.7434 27.7369C87.9503 27.7369 87.312 28.0042 86.8091 28.5387C86.3255 29.0732 86.074 29.7223 86.074 30.505C86.074 31.2877 86.3255 31.9368 86.8091 32.4713C87.312 33.0059 87.9503 33.2731 88.7434 33.2731C89.5558 33.2731 90.2135 33.0059 90.697 32.4713Z" fill="white"/>
<path d="M99.0344 33.8652C98.6088 33.8461 98.2413 33.7698 97.9318 33.6171C97.6223 33.4643 97.3902 33.2543 97.2355 33.0062C97.0807 32.758 96.9647 32.4907 96.9066 32.2235C96.8486 31.9562 96.8099 31.6698 96.8293 31.3644L96.9647 27.5654L97.4676 27.5845L97.3322 31.3262C97.3322 31.5362 97.3322 31.7271 97.3515 31.918C97.3709 32.1089 97.4289 32.2998 97.5063 32.4716C97.5836 32.6625 97.6997 32.8153 97.8158 32.9489C97.9512 33.0825 98.1059 33.1971 98.3187 33.2925C98.5315 33.388 98.7829 33.4262 99.0537 33.4452C99.4019 33.4643 99.692 33.4071 99.9435 33.2925C100.195 33.178 100.388 33.0253 100.524 32.8344C100.659 32.6435 100.775 32.4144 100.833 32.1853C100.891 31.9562 100.93 31.708 100.949 31.4408L101.085 27.6991L101.588 27.7182L101.452 31.5171C101.433 31.8226 101.394 32.1089 101.317 32.3762C101.239 32.6434 101.104 32.8916 100.93 33.1398C100.756 33.388 100.504 33.5598 100.195 33.7125C99.8468 33.8271 99.4599 33.8843 99.0344 33.8652Z" fill="white"/>
<path d="M106.441 34.0365L106.828 27.9658L108.782 28.0804C109.207 28.0995 109.614 28.1949 109.981 28.3476C110.368 28.5003 110.697 28.7103 110.987 28.9585C111.277 29.2258 111.509 29.5503 111.664 29.9703C111.819 30.3712 111.896 30.8294 111.857 31.3257C111.819 31.8221 111.703 32.2611 111.49 32.6429C111.277 33.0248 111.006 33.3302 110.678 33.5593C110.349 33.7884 109.981 33.9411 109.594 34.0556C109.207 34.1511 108.801 34.1893 108.376 34.1702L106.441 34.0365ZM107.293 28.424L106.964 33.6166L108.279 33.6929C109.169 33.7502 109.904 33.5593 110.445 33.1011C110.987 32.6429 111.297 32.0321 111.335 31.2875C111.393 30.5239 111.161 29.8939 110.678 29.3785C110.194 28.8631 109.498 28.5767 108.608 28.5194L107.293 28.424Z" fill="white"/>
</svg>
